# xmcd
#
# Track frame offsets:
#	150
#	7024
#	27916
#	41896
#	58799
#	74089
#	90863
#	109516
#	130070
#	153964
#	170234
#	190982
#	212313
#	226192
#	247775
#	264131
#	279097
#	297339
#	312154
#	327185
#	342799
#	349687
#
# Disc length: 4827 seconds
#
# Revision: 0
# Processed by: cddbd v1.5.2PL0 Copyright (c) Steve Scherf et al.
# Submitted via: EasyCDDAExtractor 16.0.6.1
#
DISCID=2e12d916
DTITLE=Various Artist - We Walk the Line
DYEAR=2012
DGENRE=Country
TTITLE0=Matthew McConaughey - Introduction
TTITLE1=Brandi Carlile - Folsom Prison Blues
TTITLE2=Andy Grammer - Get Rhythm
TTITLE3=Amy Lee - I'm So Lonesome I Could Cry
TTITLE4=Buddy Miller - Hey Porter
TTITLE5=Shelby Lynne - Why Me Lord
TTITLE6=Pat Monahan - Help Me Make It Through the Night
TTITLE7=Pat Monahan - It Ain't Me Babe
TTITLE8=Jamey Johnson - Sunday Morning Coming Down
TTITLE9=Carolina Chocolate Drops - Jackson
TTITLE10=Rhett Miller - Wreck of the Old 97
TTITLE11=Ronnie Dunn - Ring of Fire
TTITLE12=Shooter Jennings - Cocaine Blues
TTITLE13=Lucinda Williams - Hurt
TTITLE14=Iron and Wine - The Long Black Veil
TTITLE15=Kris Kristofferson - Big River
TTITLE16=Sheryl Crow - Cry, Cry, Cry
TTITLE17=Willie Nelson - If I Were a Carpenter
TTITLE18=Willie Nelson - Highwayman
TTITLE19=Full Ensemble - I Walk the Line
TTITLE20=Matthew McConaughey - Outro
TTITLE21=Willie Nelson - I Still Miss Someone
EXTD=
EXTT0=
EXTT1=
EXTT2=
EXTT3=
EXTT4=
EXTT5=
EXTT6=
EXTT7=
EXTT8=
EXTT9=
EXTT10=
EXTT11=
EXTT12=
EXTT13=
EXTT14=
EXTT15=
EXTT16=
EXTT17=
EXTT18=
EXTT19=
EXTT20=
EXTT21=
PLAYORDER=
